<?xml version="1.0" encoding="UTF-8"?>
<svg xmlns="http://www.w3.org/2000/svg" xmlns:xlink="http://www.w3.org/1999/xlink" width="208pt" height="208pt" viewBox="0 0 208 208" version="1.1">
<g id="surface19621870">
<path style=" stroke:none;fill-rule:nonzero;fill:rgb(10.196078%,73.72549%,61.176471%);fill-opacity:1;" d="M 168.8125 0 L 39.1875 0 C 17.59375 0 0 17.59375 0 39.1875 L 0 168.8125 C 0 190.40625 17.59375 208 39.1875 208 L 168.8125 208 C 190.40625 208 208 190.40625 208 168.8125 L 208 39.1875 C 208 17.59375 190.40625 0 168.8125 0 Z M 68.8125 121.59375 C 72 121.59375 76 120.8125 78.40625 120 L 79.1875 120 C 79.1875 120 80 120 80 120.8125 L 81.59375 128 C 81.59375 128.8125 81.59375 128.8125 80.8125 128.8125 C 78.40625 129.59375 73.59375 131.1875 68 131.1875 C 52 131.1875 42.40625 121.59375 42.40625 105.59375 C 42.40625 89.59375 53.59375 79.1875 69.59375 79.1875 C 75.1875 79.1875 80 80 81.59375 81.59375 C 82.40625 81.59375 82.40625 82.40625 82.40625 82.40625 L 80.8125 89.59375 C 80.8125 89.59375 80.8125 90.40625 80 90.40625 L 79.1875 90.40625 C 77.59375 89.59375 74.40625 88.8125 70.40625 88.8125 C 60.8125 88.8125 54.40625 95.1875 54.40625 105.59375 C 52.8125 116 58.40625 121.59375 68.8125 121.59375 Z M 123.1875 112.8125 C 123.1875 113.59375 122.40625 113.59375 122.40625 113.59375 L 108 113.59375 L 108 128.8125 C 108 129.59375 107.1875 129.59375 107.1875 129.59375 L 101.59375 129.59375 C 100.8125 129.59375 100.8125 128.8125 100.8125 128.8125 L 100.8125 113.59375 L 86.40625 113.59375 C 85.59375 113.59375 85.59375 112.8125 85.59375 112.8125 L 85.59375 107.1875 C 85.59375 106.40625 86.40625 106.40625 86.40625 106.40625 L 100.8125 106.40625 L 100.8125 91.1875 C 100.8125 90.40625 101.59375 90.40625 101.59375 90.40625 L 107.1875 90.40625 C 108 90.40625 108 91.1875 108 91.1875 L 108 106.40625 L 122.40625 106.40625 C 123.1875 106.40625 123.1875 107.1875 123.1875 107.1875 Z M 166.40625 112.8125 C 166.40625 113.59375 165.59375 113.59375 165.59375 113.59375 L 151.1875 113.59375 L 151.1875 128.8125 C 151.1875 129.59375 150.40625 129.59375 150.40625 129.59375 L 144 129.59375 C 143.1875 129.59375 143.1875 128.8125 143.1875 128.8125 L 143.1875 113.59375 L 128 113.59375 C 127.1875 113.59375 127.1875 112.8125 127.1875 112.8125 L 127.1875 107.1875 C 127.1875 106.40625 128 106.40625 128 106.40625 L 142.40625 106.40625 L 142.40625 91.1875 C 142.40625 90.40625 143.1875 90.40625 143.1875 90.40625 L 148.8125 90.40625 C 149.59375 90.40625 149.59375 91.1875 149.59375 91.1875 L 149.59375 106.40625 L 164 106.40625 C 164.8125 106.40625 164.8125 107.1875 164.8125 107.1875 L 164.8125 112.8125 Z M 166.40625 112.8125 "/>
</g>
</svg>
